# xmcd
# 
# Track frame offsets:
#     182
#     13982
#     34675
#     56277
#     74677
#     88317
#     101510
#     118552
#     133885
#     160010
#     177177
#     198340
#     212755
#     232905
#     245935
#     258532
#     275942
#     289302
# 
# Disc length: 4026
# 
# Revision: 4
# Processed by: cddbd v1.5.2PL0 Copyright (c) Steve Scherf et al.
# Submitted via: fre:ac v1.0.27
# 
DISCID=190fb812
DTITLE=Clifton Chenier - Clifton Chenier
DYEAR=1977
DGENRE=Cajun
TTITLE0=Tu Es Si Jolie
TTITLE1=No Salt In Your Snapbeans
TTITLE2=You're Just Fussing Too Much
TTITLE3=Pinetops Boogie Woogie
TTITLE4=Marcher Plancher
TTITLE5=Here Little Girl
TTITLE6=Release Me
TTITLE7=Jambalaya
TTITLE8=I'm A Hog For You
TTITLE9=Louisiana Two-step
TTITLE10=When You Going To Sing For Me?
TTITLE11=Who Who Who
TTITLE12=You Promised Me Love
TTITLE13=Black Girl
TTITLE14=Money
TTITLE15=Hush-hush
TTITLE16=Calinda
TTITLE17=Duo (encore)
EXTD=YEAR: 1977
EXTT0=
EXTT1=
EXTT2=
EXTT3=
EXTT4=
EXTT5=
EXTT6=
EXTT7=
EXTT8=
EXTT9=
EXTT10=
EXTT11=
EXTT12=
EXTT13=
EXTT14=
EXTT15=
EXTT16=
EXTT17=
PLAYORDER=
